<svg width="23" height="23" viewBox="0 0 23 23" fill="none" xmlns="http://www.w3.org/2000/svg">
<g id="Frame">
<path id="Vector" d="M19.2827 6.51482C18.4682 5.10337 17.2961 3.93155 15.8844 3.11749C14.4536 2.28402 12.8922 1.86682 11.2 1.86682C9.5079 1.86682 7.94643 2.28402 6.5147 3.11749C5.0839 3.95095 3.95083 5.08402 3.11737 6.51482C2.2839 7.94562 1.8667 9.50802 1.8667 11.2002C1.8667 12.8923 2.28297 14.4547 3.11737 15.8855C3.93153 17.2972 5.10374 18.469 6.51563 19.2828C7.94643 20.1163 9.5079 20.5335 11.2 20.5335C12.8922 20.5335 14.4536 20.1163 15.8854 19.2828C17.297 18.4688 18.4692 17.2969 19.2836 15.8855C20.1171 14.4547 20.5334 12.8923 20.5334 11.2002C20.5334 9.50802 20.1171 7.94562 19.2827 6.51482ZM11.2 3.41615C13.0667 3.41615 14.7206 4.01349 16.1654 5.20722C15.3067 6.30296 14.0318 7.20456 12.3387 7.91389C11.4035 6.22176 10.3899 4.80869 9.2951 3.67655C9.91558 3.50499 10.5563 3.41741 11.2 3.41615ZM5.1427 6.34682C5.82519 5.48015 6.68873 4.77301 7.67297 4.27482C8.80417 5.39575 9.84297 6.79482 10.7903 8.47482C8.92363 9.03482 6.95057 9.31482 4.87203 9.31482C4.33723 9.31482 3.9331 9.30269 3.6587 9.27749C3.94474 8.20824 4.45012 7.21021 5.1427 6.34682ZM3.41603 11.2002C3.41603 11.1498 3.41883 11.0882 3.42537 11.0135C3.4319 10.9388 3.4347 10.8772 3.4347 10.8268C3.67177 10.8399 4.03297 10.8455 4.5183 10.8455C7.00657 10.8455 9.32123 10.503 11.4614 9.81882C11.6359 10.167 11.817 10.559 12.0027 10.9948C10.7707 11.2683 9.50697 11.9338 8.21243 12.9922C6.9179 14.0506 5.97337 15.164 5.37603 16.3335C4.06937 14.8523 3.41603 13.1415 3.41603 11.2002ZM11.2 18.9842C9.4323 18.9842 7.84563 18.4363 6.4391 17.3424C7.00003 16.2346 7.8615 15.1752 9.02537 14.1682C10.1883 13.1602 11.3428 12.532 12.488 12.2828C13.2104 14.2792 13.699 16.3526 13.944 18.4615C13.0694 18.8033 12.1391 18.9805 11.2 18.9842ZM17.808 15.2882C17.1971 16.2724 16.3745 17.1081 15.4 17.7344C15.176 15.7931 14.7467 13.9012 14.113 12.0588C14.9828 11.9972 15.7603 11.9655 16.4463 11.9655C17.192 11.9655 18.0199 11.9972 18.928 12.0588C18.8062 13.2067 18.4231 14.3114 17.808 15.2882ZM16.6507 10.6215C15.568 10.6215 14.5666 10.6654 13.6454 10.7522C13.4502 10.2414 13.2386 9.73715 13.0107 9.24015C14.939 8.39455 16.3072 7.36789 17.1164 6.16015C18.2364 7.47989 18.8468 8.98535 18.9458 10.6775C18.1879 10.6402 17.4226 10.6215 16.6507 10.6215Z" fill="white"/>
</g>
</svg>
